<?xml version="1.0" encoding="UTF-8" standalone="no"?>
<!-- Created with Inkscape (http://www.inkscape.org/) -->

<svg
   xmlns:dc="http://purl.org/dc/elements/1.1/"
   xmlns:cc="http://creativecommons.org/ns#"
   xmlns:rdf="http://www.w3.org/1999/02/22-rdf-syntax-ns#"
   xmlns:svg="http://www.w3.org/2000/svg"
   xmlns="http://www.w3.org/2000/svg"
   xmlns:sodipodi="http://sodipodi.sourceforge.net/DTD/sodipodi-0.dtd"
   xmlns:inkscape="http://www.inkscape.org/namespaces/inkscape"
   width="75"
   height="26.393003"
   id="svg4837"
   version="1.1"
   inkscape:version="0.48.4 r9939"
   sodipodi:docname="logo.svg">
  <defs
     id="defs4839" />
  <sodipodi:namedview
     id="base"
     pagecolor="#ffffff"
     bordercolor="#666666"
     borderopacity="1.0"
     inkscape:pageopacity="0.0"
     inkscape:pageshadow="2"
     inkscape:zoom="5.6"
     inkscape:cx="54.343959"
     inkscape:cy="9.7568168"
     inkscape:document-units="px"
     inkscape:current-layer="capa1"
     showgrid="false"
     fit-margin-top="0"
     fit-margin-left="0"
     fit-margin-right="0"
     fit-margin-bottom="0"
     inkscape:window-width="1280"
     inkscape:window-height="985"
     inkscape:window-x="1360"
     inkscape:window-y="0"
     inkscape:window-maximized="1" />
  <metadata
     id="metadata4842">
    <rdf:RDF>
      <cc:Work
         rdf:about="">
        <dc:format>image/svg+xml</dc:format>
        <dc:type
           rdf:resource="http://purl.org/dc/dcmitype/StillImage" />
        <dc:title />
      </cc:Work>
    </rdf:RDF>
  </metadata>
  <g
     inkscape:label="Capa 1"
     inkscape:groupmode="layer"
     id="capa1"
     transform="translate(-332.37503,-517.88999)">
    <g
       id="g2992"
       transform="matrix(0.87976622,0,0,0.87976622,39.962706,62.732241)">
      <g
         id="text3776-2-6"
         style="font-size:41.55123901px;font-style:normal;font-variant:normal;font-weight:normal;font-stretch:normal;line-height:110.00000238%;letter-spacing:0px;word-spacing:0px;fill:#4a8262;fill-opacity:1;stroke:none;font-family:Sawasdee;-inkscape-font-specification:Sawasdee">
        <path
           id="path4874"
           style="text-align:start;line-height:110.00000238%;writing-mode:lr-tb;text-anchor:start;fill:#4a8262;font-family:PINTANINA;-inkscape-font-specification:PINTANINA"
           d="m 365.82809,518.65025 -0.0831,28.25484 7.81164,-0.70637 1.03878,-4.69529 -4.98615,1.32964 0.62327,-25.01385 -4.40443,0.83103"
           inkscape:connector-curvature="0" />
        <path
           id="path4876"
           style="text-align:start;line-height:110.00000238%;writing-mode:lr-tb;text-anchor:start;fill:#4a8262;font-family:PINTANINA;-inkscape-font-specification:PINTANINA"
           d="m 379.9159,524.38432 -4.27977,0.24931 0,22.27146 3.82271,-0.83102 0.45706,-21.68975 m -1.53739,-7.02216 c -3.3241,0 -3.90582,1.82826 -3.90582,3.36565 0,1.16343 0.87258,2.16066 2.95014,2.16066 2.86703,0 3.57341,-2.03601 3.61496,-3.24099 0,-0.91413 -0.49862,-2.28532 -2.65928,-2.28532"
           inkscape:connector-curvature="0" />
        <path
           id="path4878"
           style="text-align:start;line-height:110.00000238%;writing-mode:lr-tb;text-anchor:start;fill:#4a8262;font-family:PINTANINA;-inkscape-font-specification:PINTANINA"
           d="m 386.19468,532.90232 0.99723,-15.0831 -4.61218,0.99723 -1.03878,28.08864 4.44598,-0.91413 0,-0.99723 c 0,-1.16343 0,-3.15789 0.12465,-4.81994 l 0.74792,-0.24931 c 0.70637,1.66205 2.16067,4.27978 5.36011,6.89751 l 3.36565,-4.36288 c -6.14957,-4.07202 -6.8975,-6.68975 -6.8975,-6.68975 0,0 6.31579,-12.63158 6.60665,-17.95014 l -4.52909,0.78948 c -0.1662,4.15512 -2.70083,10.84487 -4.57064,14.29362"
           inkscape:connector-curvature="0" />
        <path
           id="path4880"
           style="text-align:start;line-height:110.00000238%;writing-mode:lr-tb;text-anchor:start;fill:#4a8262;font-family:PINTANINA;-inkscape-font-specification:PINTANINA"
           d="m 405.59457,522.30676 0.29086,-4.48754 -9.63989,2.24377 c 0,18.57339 -0.33241,22.85319 -0.37396,26.80055 2.03601,-0.16621 7.56233,-0.66482 9.72299,-0.83103 l 0.29086,-4.52908 c -1.82825,0.45706 -3.94737,0.91413 -5.52632,1.24654 l 0,-9.22438 4.15513,-0.49861 0,-3.03324 -4.15513,0.95567 0,-8.18559 c 1.95291,-0.1662 4.03047,-0.37396 5.23546,-0.45706"
           inkscape:connector-curvature="0" />
        <path
           id="path4882"
           style="text-align:start;line-height:110.00000238%;writing-mode:lr-tb;text-anchor:start;fill:#4a8262;font-family:PINTANINA;-inkscape-font-specification:PINTANINA"
           d="m 416.08755,517.77767 c 0,0 -8.72576,2.24378 -8.72576,8.68421 0,4.81994 4.7784,7.18837 4.7784,10.67867 0,2.65928 -5.06925,5.56787 -5.06925,5.56787 0.37396,1.57894 0.70637,3.07479 1.12188,4.65373 5.40165,-3.5734 8.10249,-6.44044 8.10249,-9.93074 0,-1.7867 -0.70637,-3.73962 -2.16066,-6.06648 -1.5374,-2.36842 -2.65928,-3.1579 -2.65928,-4.81995 0,-3.03323 6.14958,-5.15235 6.14958,-5.15235 l -1.5374,-3.61496"
           inkscape:connector-curvature="0" />
      </g>
      <path
         inkscape:connector-curvature="0"
         id="rect3388"
         d="m 332.37503,517.36218 29.99999,0 0,30 -29.99999,0 z"
         style="color:#000000;fill:#42574b;fill-opacity:1;fill-rule:nonzero;stroke:none;stroke-width:2.5;marker:none;visibility:visible;display:inline;overflow:visible;enable-background:accumulate" />
      <g
         id="text3776-2-6-0"
         style="font-size:37.39611816px;font-style:normal;font-variant:normal;font-weight:normal;font-stretch:normal;line-height:110.00000238%;letter-spacing:0px;word-spacing:0px;fill:#ffffff;fill-opacity:1;stroke:none;font-family:Sawasdee;-inkscape-font-specification:Sawasdee">
        <path
           id="path4885"
           style="text-align:start;line-height:110.00000238%;writing-mode:lr-tb;text-anchor:start;fill:#ffffff;font-family:PINTANINA;-inkscape-font-specification:PINTANINA"
           d="m 341.53479,519.66619 -5.31025,1.60803 0,4.71191 4.11358,-1.64543 0,21.1662 4.00138,-0.9349 0,-25.31717 -2.80471,0.41136"
           inkscape:connector-curvature="0" />
        <path
           id="path4887"
           style="text-align:start;line-height:110.00000238%;writing-mode:lr-tb;text-anchor:start;fill:#ffffff;font-family:PINTANINA;-inkscape-font-specification:PINTANINA"
           d="m 350.07396,532.79222 0.89751,-13.57479 -4.15097,0.89751 -0.9349,25.27977 4.00138,-0.82271 0,-0.89751 c 0,-1.04709 0,-2.8421 0.11219,-4.33795 l 0.67313,-0.22437 c 0.63574,1.49584 1.9446,3.8518 4.8241,6.20775 l 3.02909,-3.92659 c -5.53462,-3.66482 -6.20776,-6.02078 -6.20776,-6.02078 0,0 5.68421,-11.36842 5.94598,-16.15512 l -4.07617,0.71053 c -0.14959,3.73961 -2.43075,9.76039 -4.11358,12.86426"
           inkscape:connector-curvature="0" />
      </g>
    </g>
  </g>
</svg>
